<?xml version="1.0" encoding="UTF-8"?>
<!-- Generator: Adobe Illustrator 15.0.2, SVG Export Plug-In . SVG Version: 6.00 Build 0)  -->
<!DOCTYPE svg PUBLIC "-//W3C//DTD SVG 1.1//EN" "http://www.w3.org/Graphics/SVG/1.1/DTD/svg11.dtd">
<svg xmlns="http://www.w3.org/2000/svg" xmlns:xlink="http://www.w3.org/1999/xlink" version="1.1" id="Layer_1" x="0px" y="0px" width="512px" height="512px" viewBox="0 0 512 512" enable-background="new 0 0 512 512" xml:space="preserve">
<path d="M313.5,364.906C297.604,377.167,277.229,384,256,384s-41.599-6.833-57.495-19.094c-4.583-3.625-11.307-2.771-14.932,1.927  c-3.625,4.688-2.771,11.303,1.922,14.928c19.521,15.146,44.583,23.572,70.505,23.572c25.917,0,50.979-8.427,70.5-23.572  c4.698-3.625,5.552-10.344,1.927-14.928C324.802,362.136,318.083,361.281,313.5,364.906z" fill="#000000"/>
<circle cx="181.333" cy="266.667" r="21.333"/>
<path d="M256,0C114.667,0,0,114.667,0,256s114.667,256,256,256s256-114.667,256-256S397.333,0,256,0z M425.812,316.167  c-23.25,79.781-91.094,137.697-171.521,137.697c-80.531,0-148.479-58.135-171.625-138.135  c-25.386-2.125-45.334-25.167-45.334-53.542c0-27.094,18.24-49.386,41.922-53.229v-0.104  c44.584-31.256,81.172-74.453,87.359-107.734l0.104,0.109v-0.323c28.906,56,134.406,110.719,252.261,107.948  c2.146-0.323,4.166-0.75,6.302-0.75c27.198,0,49.281,24.219,49.281,54.083C474.667,291.833,452.802,315.948,425.812,316.167z" fill="#000000"/>
<circle cx="330.667" cy="266.667" r="21.333"/>
</svg>
